HIERARCHY
ROOT Model_Hips
{
	OFFSET 0.000000 96.915077 0.000000
	CHANNELS 6 Xposition Yposition Zposition Xrotation Yrotation Zrotation
	JOINT Model_Spine
	{
		OFFSET 0.000000 11.137703 -1.289900
		CHANNELS 3 Xrotation Yrotation Zrotation
		JOINT Model_Spine1
		{
			OFFSET 0.000000 12.993942 -1.504922
			CHANNELS 3 Xrotation Yrotation Zrotation
			JOINT Model_Spine2
			{
				OFFSET 0.000000 14.850220 -1.719911
				CHANNELS 3 Xrotation Yrotation Zrotation
				JOINT Model_Neck
				{
					OFFSET 0.000000 16.706543 -1.934903
					CHANNELS 3 Xrotation Yrotation Zrotation
					JOINT Model_Head
					{
						OFFSET 0.000000 10.471298 2.002100
						CHANNELS 3 Xrotation Yrotation Zrotation
						JOINT Model_HeadTop_End
						{
							OFFSET 0.000000 20.842606 3.985100
							CHANNELS 3 Xrotation Yrotation Zrotation
							End Site
							{
								OFFSET 0.000000 21.220154 0.000000
							}
						}
					}
				}
				JOINT Model_LeftShoulder
				{
					OFFSET 7.008500 14.768600 -1.919946
					CHANNELS 3 Xrotation Yrotation Zrotation
					JOINT Model_LeftArm
					{
						OFFSET 14.126271 -3.718048 0.029937
						CHANNELS 3 Xrotation Yrotation Zrotation
						JOINT Model_LeftForeArm
						{
							OFFSET 28.282801 0.000000 0.000000
							CHANNELS 3 Xrotation Yrotation Zrotation
							JOINT Model_LeftHand
							{
								OFFSET 26.204689 0.000000 0.000000
								CHANNELS 3 Xrotation Yrotation Zrotation
								End Site
								{
									OFFSET 26.204704 0.000000 0.000000
								}
							}
						}
					}
				}
				JOINT Model_RightShoulder
				{
					OFFSET -7.008500 14.768555 -1.949840
					CHANNELS 3 Xrotation Yrotation Zrotation
					JOINT Model_RightArm
					{
						OFFSET -14.126281 -3.718018 -0.029932
						CHANNELS 3 Xrotation Yrotation Zrotation
						JOINT Model_RightForeArm
						{
							OFFSET -28.283798 0.000000 -0.000001
							CHANNELS 3 Xrotation Yrotation Zrotation
							JOINT Model_RightHand
							{
								OFFSET -26.204193 0.000000 -0.000001
								CHANNELS 3 Xrotation Yrotation Zrotation
								End Site
								{
									OFFSET -26.204208 0.000000 -0.000001
								}
							}
						}
					}
				}
			}
		}
	}
	JOINT Model_LeftUpLeg
	{
		OFFSET 8.327700 -6.193199 -0.402800
		CHANNELS 3 Xrotation Yrotation Zrotation
		JOINT Model_LeftLeg
		{
			OFFSET 0.735802 -42.108742 -0.610721
			CHANNELS 3 Xrotation Yrotation Zrotation
			JOINT Model_LeftFoot
			{
				OFFSET -0.735806 -36.833748 -0.172876
				CHANNELS 3 Xrotation Yrotation Zrotation
				JOINT Model_LeftToeBase
				{
					OFFSET -0.565857 -11.977769 16.297714
					CHANNELS 3 Xrotation Yrotation Zrotation
					JOINT Model_LeftToe_End
					{
						OFFSET -0.111712 -0.312793 7.857784
						CHANNELS 3 Xrotation Yrotation Zrotation
						End Site
						{
							OFFSET -0.111712 -0.312793 7.857784
						}
					}
				}
			}
		}
	}
	JOINT Model_RightUpLeg
	{
		OFFSET -8.327700 -6.193199 -0.516500
		CHANNELS 3 Xrotation Yrotation Zrotation
		JOINT Model_RightLeg
		{
			OFFSET -0.735785 -42.108738 -0.434061
			CHANNELS 3 Xrotation Yrotation Zrotation
			JOINT Model_RightFoot
			{
				OFFSET 0.735776 -36.833748 -0.021630
				CHANNELS 3 Xrotation Yrotation Zrotation
				JOINT Model_RightToeBase
				{
					OFFSET 0.565817 -11.977745 15.903093
					CHANNELS 3 Xrotation Yrotation Zrotation
					JOINT Model_RightToe_End
					{
						OFFSET 0.111702 -0.312791 7.811342
						CHANNELS 3 Xrotation Yrotation Zrotation
						End Site
						{
							OFFSET 0.111702 -0.312791 7.811342
						}
					}
				}
			}
		}
	}
}
MOTION
Frames: 15
Frame Time: 0.016667
-0.359102 83.731575 1.802813 9.958108 -7.131894 -9.735110 1.850122 3.858043 19.572559 3.189196 0.673181 -4.455897 3.243119 0.689297 -4.426722 16.182306 0.231561 -0.326562 0.604351 0.305710 -1.271787 0.000001 0.000000 -0.000000 1.044396 -4.331114 5.644745 43.496171 -18.741887 -61.309718 -0.000008 -49.960761 0.000008 -0.000001 -0.000000 0.000000 0.840544 -2.594249 9.893256 -41.269253 21.228528 76.633876 -0.000021 73.634617 0.000026 -0.000002 0.000001 -0.000001 -55.421849 -7.394017 -2.218786 144.366990 4.021622 -0.946325 14.787611 -1.517682 -18.717732 9.207563 -0.000003 0.000004 -0.000000 0.000000 0.000001 -15.295804 -9.040208 1.297253 66.588532 -0.627257 11.416449 -27.444206 13.107673 -4.150104 -36.756704 0.000001 0.000001 0.000001 -0.000000 0.000000 
-0.101874 86.046318 11.509011 8.256761 -13.963203 -5.826632 1.946997 12.322342 15.469912 2.661057 1.685161 -5.419865 2.773332 1.564925 -5.444785 15.065437 -0.445789 -1.910026 0.590277 -0.041515 -2.907860 0.000001 0.000000 0.000000 0.835569 -2.080050 5.632343 42.552010 -14.227888 -61.131272 -0.000014 -39.888295 -0.000006 0.000002 0.000000 -0.000002 0.145315 -0.911159 6.768156 -46.133068 22.798569 70.198362 0.000017 75.878019 -0.000031 0.000000 0.000001 0.000001 -75.113503 -15.276068 -0.693241 144.624693 -4.574210 -1.576117 24.960890 -0.531371 -21.195747 11.558487 -0.000009 0.000005 -0.000001 0.000000 -0.000000 -4.665739 -7.701908 -6.754958 54.239437 -0.168188 11.583466 -19.479558 19.440709 -3.754797 -43.564050 0.000005 0.000001 0.000000 -0.000001 0.000000 
-0.479942 89.782120 20.178631 7.049603 -19.313535 0.714500 3.839481 20.959508 7.186821 2.561343 2.679815 -6.712676 2.758562 2.415025 -6.795573 13.735679 -1.165316 -3.717670 0.627438 -0.392118 -4.757149 -0.000001 0.000000 -0.000001 0.632200 0.191777 5.085465 40.110593 -9.381669 -59.565772 -0.000008 -29.384778 0.000005 0.000003 -0.000002 0.000000 -0.540331 0.303858 3.361519 -50.876324 26.684832 62.867083 0.000019 76.660650 0.000014 0.000001 -0.000000 0.000003 -87.719293 -21.562105 -1.456026 136.147322 -5.183207 -1.732524 33.875242 -3.581487 -21.035999 11.833211 -0.000011 0.000001 0.000001 -0.000000 0.000000 1.780466 -10.482535 -15.073840 41.475046 -2.565091 7.840422 -3.867631 25.696647 -6.156688 -43.227861 -0.060812 0.912339 0.000000 -0.000000 0.000000 
-1.362893 94.244400 27.033760 6.550938 -21.963629 7.027820 7.280534 28.056079 -1.739908 2.997865 3.537005 -7.869099 3.284708 3.195040 -7.972944 11.997500 -1.768401 -5.593772 0.517734 -0.685210 -6.625304 -0.000002 0.000000 -0.000002 0.410946 2.634037 4.247864 37.251971 -3.549698 -56.382156 0.000014 -20.880520 0.000006 -0.000002 0.000001 0.000001 -1.026350 1.187920 0.167692 -54.382758 31.780095 54.592869 -0.000030 76.759169 0.000036 -0.000000 -0.000004 -0.000001 -92.802518 -24.204647 -2.752908 124.077736 -3.943700 -0.943084 34.656858 -1.321757 -17.931939 10.609280 0.000002 0.000004 -0.000000 0.000003 0.000001 3.362108 -15.135774 -19.417798 29.052613 -2.639267 2.890018 15.112972 27.749570 -11.712348 -52.910812 -0.265924 0.574705 -0.000000 0.000001 0.000000 
-2.340935 98.217010 33.052925 6.244142 -22.708598 12.519238 12.552053 31.906645 -10.923639 3.894318 4.051550 -7.954628 4.223467 3.759104 -7.990250 8.817318 -1.905467 -7.611091 -0.178717 -0.757421 -8.451651 0.000001 -0.000002 0.000003 0.071722 5.717403 2.566444 33.478374 6.097417 -48.732768 -0.000012 -20.220819 -0.000017 0.000001 0.000000 -0.000002 -1.163171 0.839784 -2.064272 -53.890114 35.887675 41.745389 -0.000033 75.031008 0.000050 0.000003 -0.000002 -0.000000 -93.332363 -23.700205 -3.270518 111.921256 2.009797 0.452638 27.943976 -0.036106 -9.505281 10.068270 0.000008 0.000018 0.000003 0.000002 -0.000001 2.434274 -19.295295 -23.098161 22.070035 -1.547306 0.726665 26.142938 26.727089 -15.216615 -49.727103 -0.332634 0.666494 -0.000000 0.000000 0.000000 
-3.201164 101.866219 38.695061 6.047238 -21.727127 16.819757 17.959472 32.853131 -19.009832 4.502273 4.347318 -7.469245 4.813809 4.156687 -7.428129 5.286719 -1.702406 -9.473741 -1.112990 -0.680091 -10.069300 0.000001 -0.000002 -0.000000 -0.190079 8.124145 1.160495 27.741616 16.237136 -40.028768 0.000010 -23.072838 -0.000001 0.000001 -0.000001 0.000001 -1.045540 0.125420 -3.635357 -49.129520 39.324449 26.066126 -0.000009 68.876925 0.000020 -0.000000 -0.000000 0.000001 -92.465004 -21.335477 -3.726981 100.766785 7.189606 2.078838 16.241584 0.644901 -0.403659 9.917163 -0.000010 0.000003 0.000000 0.000003 -0.000000 0.334639 -21.265393 -25.552308 21.250756 -0.697539 -0.829759 28.841461 23.122424 -11.736136 -34.250848 -0.004483 0.005990 0.000002 0.000000 0.000000 
-3.789845 104.841339 44.557693 5.690942 -20.041088 19.711168 22.527868 31.925325 -24.916376 4.575507 4.502573 -6.718745 4.836808 4.398848 -6.635518 1.920959 -1.277274 -10.965181 -2.031727 -0.530071 -11.322837 0.000002 0.000001 -0.000000 -0.354728 9.955019 -0.126897 19.544294 25.438239 -30.003809 -0.000023 -27.176255 0.000003 -0.000000 0.000002 -0.000002 -0.720956 0.001488 -4.833654 -39.988316 39.466732 7.283657 0.000011 61.598703 -0.000004 0.000000 -0.000002 0.000001 -91.194678 -18.590651 -4.133013 90.624917 10.271064 3.748221 6.830510 0.505332 6.568824 11.287257 0.000003 0.000012 0.000001 -0.000001 -0.000003 0.969086 -22.181780 -25.476081 19.218230 0.664021 -2.488020 31.851143 17.689032 -4.787359 -15.556367 0.090604 -1.684886 -0.000001 0.000000 -0.000001 
-4.080427 107.361511 50.954323 4.732310 -18.232244 20.768831 25.915088 29.880848 -27.735636 4.268889 4.527575 -5.867170 4.472464 4.472407 -5.780907 -1.065554 -0.813623 -11.692564 -2.972497 -0.404475 -11.862624 -0.000000 0.000002 -0.000002 -0.417605 11.321215 -1.320001 10.212293 32.328187 -20.007255 -0.000006 -31.527767 -0.000005 0.000001 -0.000000 -0.000000 -0.358038 0.013073 -5.741084 -30.442187 36.580574 -8.936924 0.000001 53.136215 -0.000003 0.000000 -0.000003 0.000001 -89.964028 -15.642955 -4.015258 82.503870 12.315162 4.918794 0.110068 0.502121 11.679621 10.800798 0.000006 0.000015 -0.000000 0.000000 -0.000000 3.990089 -22.322146 -22.942831 17.575291 1.702983 -3.932067 35.356990 14.101352 2.829221 -7.657136 -0.000002 0.000010 -0.000001 0.000003 -0.000004 
-4.158422 109.776077 57.433548 3.518846 -16.217603 20.462731 28.084442 27.531248 -28.060111 3.855751 4.451834 -5.064563 4.006470 4.416241 -4.997018 -3.234299 -0.546321 -11.789240 -3.734260 -0.403590 -11.840749 -0.000000 -0.000001 0.000001 -0.415955 12.047285 -2.137963 0.598485 37.253672 -10.700003 -0.000004 -34.132801 -0.000001 -0.000000 -0.000002 0.000000 -0.113176 -0.330974 -6.266391 -22.685427 31.963636 -20.418400 0.000018 45.398065 -0.000022 0.000000 -0.000000 0.000000 -89.779736 -12.944730 -3.932385 74.462647 13.351106 5.770456 -3.270530 0.694938 15.290789 9.608765 -0.000001 0.000020 0.000000 -0.000000 -0.000002 8.572786 -21.915890 -18.737014 15.876782 2.183620 -4.759141 39.371604 12.566025 9.321050 -3.626419 -0.000008 0.000001 -0.000001 0.000002 -0.000002 
-4.060650 111.962006 64.235100 1.910872 -14.422996 18.769158 29.151049 25.733682 -26.122007 3.572860 4.309244 -4.354760 3.680019 4.274582 -4.313629 -4.071562 -0.618569 -11.183869 -4.048406 -0.583692 -11.192762 0.000000 0.000001 0.000001 -0.416117 12.562345 -2.496672 -7.300219 39.534733 -3.656382 -0.000000 -35.046244 0.000014 -0.000000 0.000001 -0.000000 -0.061323 -0.855906 -6.386918 -18.871978 29.102418 -25.326618 0.000017 37.613773 -0.000027 0.000001 0.000000 -0.000001 -90.962779 -10.577878 -3.081173 69.595659 12.926655 5.184868 -2.227440 2.684246 17.009031 7.532315 -0.000012 -0.000018 -0.000001 0.000002 -0.000000 13.911489 -21.132511 -13.862358 15.830838 2.316693 -4.829099 42.140549 15.507794 13.280622 -1.881812 -0.000005 0.000008 0.000000 0.000000 -0.000000 
-3.906094 114.028488 71.308083 0.197366 -12.626413 16.424331 29.524070 24.401389 -23.369636 3.491591 4.126702 -3.766848 3.565934 4.091887 -3.745280 -4.006407 -0.910869 -10.177938 -3.986656 -0.886080 -10.186865 -0.000001 0.000003 -0.000002 -0.423734 12.664064 -2.488215 -13.758596 40.482097 1.519248 -0.000008 -35.302024 -0.000007 0.000000 -0.000003 -0.000000 -0.121601 -1.547333 -5.964866 -17.012594 28.029898 -26.508968 0.000003 30.518508 -0.000000 0.000001 0.000000 -0.000001 -92.914178 -8.201381 -1.737399 67.188769 12.422390 3.521149 0.581954 4.984630 17.380422 5.592466 0.000000 0.000007 -0.000003 0.000001 0.000002 15.422441 -19.395634 -10.130343 24.337849 2.685538 -3.936385 39.541324 18.713296 14.812922 -1.034636 -0.000024 -0.000025 0.000000 -0.000000 0.000000 
-3.780304 116.023407 78.583702 -1.704895 -10.837105 14.174098 30.022961 23.270926 -21.144162 3.527181 3.953506 -3.239164 3.577749 3.922515 -3.228039 -3.604020 -1.243598 -9.060608 -3.587660 -1.227281 -9.068638 -0.000001 0.000000 -0.000001 -0.416520 12.710111 -2.559639 -19.103110 39.139436 5.470325 -0.000011 -34.296384 -0.000016 -0.000000 0.000001 -0.000000 -0.121722 -1.823490 -5.409722 -17.287772 27.626809 -24.301663 0.000004 24.292362 -0.000004 -0.000002 0.000000 -0.000000 -93.680341 -5.376643 -0.114071 65.364938 11.918579 1.445605 3.462999 6.348683 16.428413 4.535104 0.000005 -0.000002 -0.000000 -0.000001 0.000002 16.339822 -18.174780 -6.815488 32.978954 3.240629 -2.396529 35.797315 19.849804 15.216032 -0.965063 0.000013 0.000010 0.000000 -0.000000 0.000000 
-3.691774 117.983284 85.946640 -3.441478 -9.123321 12.224848 30.559376 22.393612 -19.463307 3.589193 3.806423 -2.813935 3.625081 3.779233 -2.809132 -2.907400 -1.586085 -7.966315 -2.893965 -1.577081 -7.972596 0.000001 -0.000000 0.000000 -0.399324 12.492617 -2.585485 -23.166405 36.784114 7.953524 -0.000014 -33.264281 -0.000023 -0.000000 -0.000002 -0.000001 -0.096321 -1.926637 -4.790778 -18.791572 27.162139 -20.021154 0.000005 19.501766 -0.000002 -0.000001 -0.000001 -0.000001 -93.496028 -2.520772 1.433411 63.807081 11.465559 -0.505963 6.157301 6.957102 14.557387 4.218687 0.000001 0.000000 -0.000002 0.000000 0.000002 16.056622 -17.655180 -4.355268 42.377584 3.880522 -0.460635 31.504808 18.887563 14.710520 -1.267924 0.000000 -0.000011 -0.000004 -0.000001 0.000002 
-3.607519 119.967194 93.472206 -4.370685 -7.556495 10.953025 30.487308 22.118181 -18.633296 3.675301 3.716981 -2.477074 3.699932 3.699170 -2.470598 -1.793071 -1.928134 -7.104849 -1.781235 -1.923563 -7.108798 -0.000001 -0.000004 0.000002 -0.378653 11.844414 -2.438830 -26.186435 33.272331 9.180984 0.000003 -31.728811 0.000003 -0.000000 0.000002 0.000001 -0.070831 -1.994508 -4.241225 -20.052213 24.645158 -14.625762 0.000007 17.940330 -0.000004 -0.000000 0.000002 0.000001 -93.090342 -0.107315 2.321490 62.391483 10.860639 -1.947145 8.700525 6.285786 12.271114 4.481581 -0.000002 -0.000004 0.000003 0.000001 0.000000 14.400154 -17.822428 -3.122752 51.103472 4.511583 1.171265 27.887094 13.901308 15.138792 -2.138979 -0.000003 -0.000000 -0.000001 -0.000001 0.000002 
-3.482023 121.800156 100.897850 -4.836484 -6.383031 10.072845 30.283365 22.221995 -18.047866 3.684415 3.676228 -2.275743 3.705697 3.660726 -2.269311 -0.578830 -2.229488 -6.447389 -0.567936 -2.227828 -6.448714 -0.000002 -0.000002 0.000002 -0.355855 11.049584 -2.221452 -27.866181 29.454709 9.182031 -0.000013 -30.450093 -0.000003 -0.000000 -0.000001 0.000001 -0.050523 -2.064206 -3.771315 -20.452610 21.559338 -9.193333 0.000012 16.913478 -0.000014 0.000000 -0.000000 -0.000000 -92.284277 1.823441 2.802678 60.728598 10.278641 -2.875455 11.383023 5.001517 10.263979 4.660317 -0.000006 -0.000002 0.000002 -0.000001 0.000000 11.355423 -18.518885 -3.102542 60.093131 5.163862 2.200151 24.378443 7.235667 15.875018 -2.771660 0.000002 -0.000002 -0.000001 -0.000001 0.000001 
